<?xml version="1.0" encoding="UTF-8"?>
<!--Generator: Apple Native CoreSVG 175.5-->
<!DOCTYPE svg
PUBLIC "-//W3C//DTD SVG 1.1//EN"
       "http://www.w3.org/Graphics/SVG/1.1/DTD/svg11.dtd">
<svg version="1.1" xmlns="http://www.w3.org/2000/svg" xmlns:xlink="http://www.w3.org/1999/xlink" width="29.5664" height="37.7051">
 <g>
  <rect height="37.7051" opacity="0" width="29.5664" x="0" y="0"/>
  <path d="M5.44922 37.6875L24.1172 37.6875C27.7559 37.6875 29.5664 35.8418 29.5664 32.1855L29.5664 16.2246C29.5664 13.957 29.3027 12.9727 27.8965 11.5312L18.2109 1.66992C16.875 0.298828 15.7676 0 13.7988 0L5.44922 0C1.82812 0 0 1.86328 0 5.51953L0 32.1855C0 35.8594 1.81055 37.6875 5.44922 37.6875ZM5.57227 34.8574C3.76172 34.8574 2.83008 33.8906 2.83008 32.1328L2.83008 5.57227C2.83008 3.83203 3.76172 2.83008 5.58984 2.83008L13.4121 2.83008L13.4121 13.043C13.4121 15.2578 14.5195 16.3477 16.7168 16.3477L26.7363 16.3477L26.7363 32.1328C26.7363 33.8906 25.8047 34.8574 23.9766 34.8574ZM17.0332 13.6934C16.3301 13.6934 16.0664 13.4121 16.0664 12.709L16.0664 3.375L26.1914 13.6934Z" fill="#ffffff" fill-opacity="0.85"/>
 </g>
</svg>
