<svg width="144" height="150" viewBox="0 0 144 150" fill="none" xmlns="http://www.w3.org/2000/svg">
<g filter="url(#filter0_dd_1_80)">
<path d="M49.0431 97.137H94.957C103.906 97.137 108.359 92.5975 108.359 83.6049V44.3491C108.359 38.7719 107.711 36.351 104.252 32.8057L80.4304 8.55187C77.1448 5.17967 74.4211 4.4447 69.5789 4.4447H49.0431C40.137 4.4447 35.6407 9.02744 35.6407 18.02V83.6049C35.6407 92.6408 40.0938 97.137 49.0431 97.137ZM49.3457 90.1764C44.8927 90.1764 42.6013 87.7986 42.6013 83.4753V18.1497C42.6013 13.8696 44.8927 11.4053 49.3889 11.4053H68.6278V36.5239C68.6278 41.9712 71.3514 44.6518 76.7557 44.6518H101.399V83.4753C101.399 87.7986 99.1074 90.1764 94.6112 90.1764H49.3457ZM77.5339 38.1236C75.8046 38.1236 75.156 37.4317 75.156 35.7025V12.7455L100.058 38.1236H77.5339Z" fill="white" fill-opacity="0.85"/>
</g>
<g filter="url(#filter1_dd_1_80)">
<path d="M30.5096 134.754C31.6193 134.754 32.5311 134.638 33.2452 134.408C34.5197 133.979 35.5634 133.155 36.3763 131.936C37.0245 130.958 37.4915 129.706 37.7771 128.178C37.9419 127.267 38.0243 126.421 38.0243 125.641C38.0243 122.641 37.4255 120.312 36.228 118.653C35.0415 116.994 33.1244 116.165 30.4767 116.165H24.6594V134.754H30.5096ZM21.3635 113.347H31.1688C34.4977 113.347 37.0795 114.528 38.9142 116.89C40.5511 119.021 41.3696 121.751 41.3696 125.08C41.3696 127.651 40.8862 129.975 39.9194 132.051C38.2166 135.721 35.2887 137.555 31.1359 137.555H21.3635V113.347ZM51.2006 135.644C53.1672 135.644 54.513 134.902 55.2381 133.419C55.9742 131.925 56.3422 130.266 56.3422 128.442C56.3422 126.794 56.0786 125.454 55.5512 124.421C54.7163 122.795 53.2771 121.982 51.2336 121.982C49.4208 121.982 48.1025 122.674 47.2785 124.059C46.4545 125.443 46.0426 127.113 46.0426 129.068C46.0426 130.947 46.4545 132.513 47.2785 133.765C48.1025 135.017 49.4099 135.644 51.2006 135.644ZM51.316 119.395C53.5902 119.395 55.5128 120.153 57.0838 121.669C58.6549 123.185 59.4404 125.415 59.4404 128.36C59.4404 131.205 58.7482 133.556 57.364 135.413C55.9797 137.27 53.8319 138.198 50.9205 138.198C48.4925 138.198 46.5644 137.38 45.1362 135.743C43.708 134.095 42.9938 131.886 42.9938 129.118C42.9938 126.151 43.7464 123.789 45.2515 122.032C46.7567 120.274 48.7781 119.395 51.316 119.395ZM68.777 119.395C70.7655 119.395 72.3805 119.878 73.622 120.845C74.8744 121.812 75.627 123.476 75.8797 125.838H72.9958C72.82 124.751 72.419 123.85 71.7927 123.136C71.1665 122.411 70.1613 122.048 68.777 122.048C66.8874 122.048 65.536 122.971 64.723 124.817C64.1957 126.014 63.932 127.492 63.932 129.25C63.932 131.018 64.3056 132.507 65.0526 133.716C65.7997 134.924 66.9752 135.528 68.5792 135.528C69.8097 135.528 70.782 135.155 71.4961 134.408C72.2212 133.65 72.7211 132.617 72.9958 131.31H75.8797C75.5501 133.65 74.7261 135.364 73.4077 136.451C72.0894 137.528 70.403 138.066 68.3485 138.066C66.0414 138.066 64.2012 137.226 62.8279 135.545C61.4546 133.853 60.768 131.744 60.768 129.217C60.768 126.119 61.5205 123.707 63.0257 121.982C64.5308 120.257 66.4479 119.395 68.777 119.395ZM79.5968 132.018C79.6847 133.007 79.9319 133.765 80.3384 134.292C81.0854 135.248 82.3818 135.726 84.2275 135.726C85.3261 135.726 86.2929 135.49 87.1279 135.017C87.9629 134.534 88.3803 133.792 88.3803 132.793C88.3803 132.035 88.0453 131.458 87.3751 131.062C86.9466 130.821 86.1007 130.541 84.8373 130.222L82.4807 129.629C80.9756 129.255 79.8659 128.838 79.1518 128.376C77.8774 127.574 77.2402 126.465 77.2402 125.047C77.2402 123.377 77.839 122.026 79.0365 120.993C80.245 119.961 81.8655 119.444 83.8979 119.444C86.5566 119.444 88.4737 120.224 89.6493 121.784C90.3854 122.773 90.7424 123.839 90.7204 124.981H87.9189C87.864 124.311 87.6278 123.702 87.2103 123.152C86.5292 122.372 85.3481 121.982 83.6672 121.982C82.5466 121.982 81.6952 122.196 81.1129 122.625C80.5416 123.053 80.256 123.619 80.256 124.322C80.256 125.091 80.635 125.707 81.393 126.168C81.8325 126.443 82.4807 126.684 83.3376 126.893L85.2987 127.371C87.43 127.887 88.8583 128.387 89.5834 128.871C90.7369 129.629 91.3137 130.821 91.3137 132.447C91.3137 134.018 90.7149 135.375 89.5174 136.517C88.3309 137.66 86.5182 138.231 84.0792 138.231C81.4535 138.231 79.5913 137.638 78.4927 136.451C77.405 135.254 76.8227 133.776 76.7458 132.018H79.5968Z" fill="white"/>
</g>
<g filter="url(#filter2_dd_1_80)">
<path d="M102.359 137.201C102.811 137.654 103.57 137.654 104.023 137.201L118.519 122.734L121.234 125.464C121.804 126.019 122.548 125.698 122.767 124.88L125.322 115.42C125.512 114.676 124.869 114.063 124.154 114.267L114.709 116.807C113.891 117.026 113.556 117.756 114.125 118.326L116.869 121.07L102.359 135.537C101.906 135.989 101.906 136.749 102.359 137.201Z" fill="white" fill-opacity="0.85"/>
</g>
<defs>
<filter id="filter0_dd_1_80" x="33.7657" y="2.5697" width="80.2185" height="100.192" filterUnits="userSpaceOnUse" color-interpolation-filters="sRGB">
<feFlood flood-opacity="0" result="BackgroundImageFix"/>
<feColorMatrix in="SourceAlpha" type="matrix" values="0 0 0 0 0 0 0 0 0 0 0 0 0 0 0 0 0 0 127 0" result="hardAlpha"/>
<feOffset dy="3.75"/>
<feGaussianBlur stdDeviation="0.9375"/>
<feComposite in2="hardAlpha" operator="out"/>
<feColorMatrix type="matrix" values="0 0 0 0 0 0 0 0 0 0 0 0 0 0 0 0 0 0 0.25 0"/>
<feBlend mode="normal" in2="BackgroundImageFix" result="effect1_dropShadow_1_80"/>
<feColorMatrix in="SourceAlpha" type="matrix" values="0 0 0 0 0 0 0 0 0 0 0 0 0 0 0 0 0 0 127 0" result="hardAlpha"/>
<feOffset dx="3.75"/>
<feGaussianBlur stdDeviation="0.9375"/>
<feComposite in2="hardAlpha" operator="out"/>
<feColorMatrix type="matrix" values="0 0 0 0 0 0 0 0 0 0 0 0 0 0 0 0 0 0 0.25 0"/>
<feBlend mode="normal" in2="effect1_dropShadow_1_80" result="effect2_dropShadow_1_80"/>
<feBlend mode="normal" in="SourceGraphic" in2="effect2_dropShadow_1_80" result="shape"/>
</filter>
<filter id="filter1_dd_1_80" x="19.4885" y="111.472" width="77.4502" height="32.384" filterUnits="userSpaceOnUse" color-interpolation-filters="sRGB">
<feFlood flood-opacity="0" result="BackgroundImageFix"/>
<feColorMatrix in="SourceAlpha" type="matrix" values="0 0 0 0 0 0 0 0 0 0 0 0 0 0 0 0 0 0 127 0" result="hardAlpha"/>
<feOffset dx="3.75"/>
<feGaussianBlur stdDeviation="0.9375"/>
<feComposite in2="hardAlpha" operator="out"/>
<feColorMatrix type="matrix" values="0 0 0 0 0 0 0 0 0 0 0 0 0 0 0 0 0 0 0.25 0"/>
<feBlend mode="normal" in2="BackgroundImageFix" result="effect1_dropShadow_1_80"/>
<feColorMatrix in="SourceAlpha" type="matrix" values="0 0 0 0 0 0 0 0 0 0 0 0 0 0 0 0 0 0 127 0" result="hardAlpha"/>
<feOffset dy="3.75"/>
<feGaussianBlur stdDeviation="0.9375"/>
<feComposite in2="hardAlpha" operator="out"/>
<feColorMatrix type="matrix" values="0 0 0 0 0 0 0 0 0 0 0 0 0 0 0 0 0 0 0.25 0"/>
<feBlend mode="normal" in2="effect1_dropShadow_1_80" result="effect2_dropShadow_1_80"/>
<feBlend mode="normal" in="SourceGraphic" in2="effect2_dropShadow_1_80" result="shape"/>
</filter>
<filter id="filter2_dd_1_80" x="100.144" y="114.227" width="27.0862" height="28.9381" filterUnits="userSpaceOnUse" color-interpolation-filters="sRGB">
<feFlood flood-opacity="0" result="BackgroundImageFix"/>
<feColorMatrix in="SourceAlpha" type="matrix" values="0 0 0 0 0 0 0 0 0 0 0 0 0 0 0 0 0 0 127 0" result="hardAlpha"/>
<feOffset dy="3.75"/>
<feGaussianBlur stdDeviation="0.9375"/>
<feComposite in2="hardAlpha" operator="out"/>
<feColorMatrix type="matrix" values="0 0 0 0 0 0 0 0 0 0 0 0 0 0 0 0 0 0 0.25 0"/>
<feBlend mode="normal" in2="BackgroundImageFix" result="effect1_dropShadow_1_80"/>
<feColorMatrix in="SourceAlpha" type="matrix" values="0 0 0 0 0 0 0 0 0 0 0 0 0 0 0 0 0 0 127 0" result="hardAlpha"/>
<feOffset dy="3.75"/>
<feGaussianBlur stdDeviation="0.9375"/>
<feComposite in2="hardAlpha" operator="out"/>
<feColorMatrix type="matrix" values="0 0 0 0 0 0 0 0 0 0 0 0 0 0 0 0 0 0 0.25 0"/>
<feBlend mode="normal" in2="effect1_dropShadow_1_80" result="effect2_dropShadow_1_80"/>
<feBlend mode="normal" in="SourceGraphic" in2="effect2_dropShadow_1_80" result="shape"/>
</filter>
</defs>
</svg>
