<svg width="729" height="150" viewBox="0 0 729 150" fill="none" xmlns="http://www.w3.org/2000/svg">
<path d="M194.923 93.2532H189.437V95.1507L190.609 96.6427L194.923 93.2532ZM194.923 92.1285L190.794 88.5159L189.437 90.0672V92.1285H194.923ZM201.921 84.1306V78.6445H199.432L197.792 80.518L201.921 84.1306ZM203.046 84.1306L207.274 80.6345L205.628 78.6445H203.046V84.1306ZM220.041 69.0096L222.03 63.8965L221.992 63.8816L221.953 63.8674L220.041 69.0096ZM253.533 35.6433H259.019V33.7503L257.851 32.2602L253.533 35.6433ZM253.533 36.768L257.51 40.5465L259.019 38.9584V36.768H253.533ZM246.409 44.266V49.7521H248.765L250.387 48.0446L246.409 44.266ZM245.285 44.266L241.105 47.8191L242.748 49.7521H245.285V44.266ZM226.54 57.2626L228.509 52.1422L228.492 52.1357L228.475 52.1293L226.54 57.2626ZM200.409 93.2532V92.1285H189.437V93.2532H200.409ZM199.052 95.7411L206.05 87.7432L197.792 80.518L190.794 88.5159L199.052 95.7411ZM201.921 89.6167H203.046V78.6445H201.921V89.6167ZM198.818 87.6267C204.974 95.0718 214.289 100.989 225.79 100.989V90.0165C218.295 90.0165 211.864 86.186 207.274 80.6345L198.818 87.6267ZM225.79 100.989C231.348 100.989 236.451 99.5852 240.316 96.7262C244.278 93.7945 246.772 89.4093 246.772 84.2556H235.8C235.8 85.6001 235.232 86.8385 233.79 87.9058C232.249 89.0457 229.604 90.0165 225.79 90.0165V100.989ZM246.772 84.2556C246.772 77.2025 242.261 73.0154 237.591 70.3627C233.221 67.8809 227.159 65.8912 222.03 63.8965L218.053 74.1226C224.171 76.5018 228.731 77.9487 232.172 79.9033C235.312 81.6869 235.8 82.9359 235.8 84.2556H246.772ZM221.953 63.8674C217.063 62.0492 212.405 60.0968 208.948 57.2374C205.744 54.5868 203.658 51.2433 203.658 46.1405H192.686C192.686 55.034 196.661 61.313 201.955 65.6919C206.996 69.8619 213.272 72.3458 218.13 74.1517L221.953 63.8674ZM203.658 46.1405C203.658 40.8875 205.867 36.7298 209.621 33.7595C213.479 30.7069 219.203 28.7576 226.165 28.7576V17.7854C217.256 17.7854 208.983 20.2724 202.813 25.1552C196.538 30.1203 192.686 37.3972 192.686 46.1405H203.658ZM226.165 28.7576C236.49 28.7576 244.464 32.9621 249.214 39.0263L257.851 32.2602C250.855 23.3283 239.583 17.7854 226.165 17.7854V28.7576ZM248.047 35.6433V36.768H259.019V35.6433H248.047ZM249.555 32.9894L242.432 40.4875L250.387 48.0446L257.51 40.5465L249.555 32.9894ZM246.409 38.7799H245.285V49.7521H246.409V38.7799ZM249.465 40.7129C244.527 34.9039 236.748 29.4074 226.29 29.4074V40.3796C232.577 40.3796 237.545 43.6307 241.105 47.8191L249.465 40.7129ZM226.29 29.4074C221.492 29.4074 216.828 30.6176 213.205 33.2154C209.462 35.8991 206.932 40.0404 206.932 45.1408H217.904C217.904 43.9928 218.374 43.0104 219.598 42.1325C220.942 41.1688 223.215 40.3796 226.29 40.3796V29.4074ZM206.932 45.1408C206.932 50.6216 209.897 54.408 213.394 56.9507C216.658 59.325 220.875 60.99 224.604 62.3959L228.475 52.1293C224.581 50.6609 221.737 49.4518 219.847 48.077C218.188 46.8707 217.904 46.0333 217.904 45.1408H206.932ZM224.57 62.383C231.419 65.0173 237.828 67.2411 242.747 70.7117C247.285 73.9133 250.046 77.8262 250.046 84.0056H261.018C261.018 73.4395 255.782 66.4802 249.072 61.7464C242.744 57.2816 234.657 54.5066 228.509 52.1422L224.57 62.383ZM250.046 84.0056C250.046 89.7065 247.707 93.9824 243.804 96.9765C239.759 100.08 233.718 102.013 226.29 102.013V112.986C235.482 112.986 244.063 110.608 250.483 105.682C257.046 100.647 261.018 93.1759 261.018 84.0056H250.046ZM226.29 102.013C214.573 102.013 204.979 97.1716 199.237 89.8638L190.609 96.6427C198.614 106.83 211.513 112.986 226.29 112.986V102.013ZM330.36 95.2527L335.722 94.0933L335.124 91.3256L332.521 90.2102L330.36 95.2527ZM329.485 94.8778L331.647 89.8353L328.731 88.5859L326.194 90.489L329.485 94.8778ZM278.249 49.8895L273.031 51.5852L275.798 60.0987L282.128 53.7688L278.249 49.8895ZM259.254 44.141L256.065 39.6768L255.087 40.3755L254.491 41.4192L259.254 44.141ZM258.754 45.0158L253.991 42.2939L252.947 44.1198L253.392 46.1752L258.754 45.0158ZM260.753 54.2634L255.391 55.4228L255.99 58.1905L258.592 59.3059L260.753 54.2634ZM261.628 54.6383L259.467 59.6808L262.382 60.9303L264.92 59.0272L261.628 54.6383ZM266.502 106H261.016V111.486H266.502V106ZM280.248 106V111.486H285.734V106H280.248ZM331.86 105.375L335.049 109.839L336.027 109.141L336.623 108.097L331.86 105.375ZM332.36 104.5L337.123 107.222L338.166 105.396L337.722 103.341L332.36 104.5ZM332.521 90.2102L331.647 89.8353L327.324 99.9203L328.199 100.295L332.521 90.2102ZM326.194 90.489C326.107 90.5537 326.223 90.4545 326.465 90.3508C326.744 90.2312 327.102 90.1415 327.486 90.1415V101.114C330.108 101.114 331.904 99.9217 332.777 99.2667L326.194 90.489ZM327.486 90.1415C327.82 90.1415 328.47 90.2338 329.147 90.6892C329.801 91.1284 330.096 91.6467 330.191 91.855C330.271 92.0287 330.228 92.0138 330.178 91.6557C330.131 91.3169 330.098 90.8223 330.098 90.129H319.126C319.126 91.9294 319.255 94.3306 320.219 96.4323C320.752 97.5934 321.625 98.8537 323.028 99.7967C324.456 100.756 326.027 101.114 327.486 101.114V90.1415ZM330.098 90.129V68.3847H319.126V90.129H330.098ZM330.098 68.3847C330.098 59.377 327.16 51.3354 321.499 45.5169C315.819 39.6799 307.834 36.5305 298.619 36.5305V47.5027C305.274 47.5027 310.286 49.7269 313.635 53.1688C317.002 56.629 319.126 61.7715 319.126 68.3847H330.098ZM298.619 36.5305C288.921 36.5305 280.361 40.0192 274.37 46.0103L282.128 53.7688C285.884 50.0124 291.571 47.5027 298.619 47.5027V36.5305ZM283.466 48.1939C281.047 40.7495 274.676 36.5305 266.877 36.5305V47.5027C270.325 47.5027 272.202 49.0322 273.031 51.5852L283.466 48.1939ZM266.877 36.5305C262.687 36.5305 258.897 37.6537 256.065 39.6768L262.443 48.6053C263.109 48.1291 264.568 47.5027 266.877 47.5027V36.5305ZM254.491 41.4192L253.991 42.2939L263.517 47.7377L264.017 46.8629L254.491 41.4192ZM253.392 46.1752L255.391 55.4228L266.116 53.104L264.116 43.8564L253.392 46.1752ZM258.592 59.3059L259.467 59.6808L263.789 49.5958L262.914 49.2209L258.592 59.3059ZM264.92 59.0272C265.006 58.9624 264.89 59.0616 264.648 59.1653C264.369 59.2849 264.011 59.3746 263.628 59.3746V48.4024C261.005 48.4024 259.21 49.5944 258.336 50.2494L264.92 59.0272ZM263.628 59.3746C263.385 59.3746 262.75 59.3105 262.052 58.8487C261.361 58.3917 261.045 57.8342 260.939 57.593C260.853 57.3994 260.895 57.403 260.943 57.783C260.987 58.1413 261.016 58.6563 261.016 59.3871H271.988C271.988 57.6909 271.907 55.2653 270.972 53.152C270.443 51.9579 269.558 50.6584 268.105 49.6977C266.646 48.7321 265.058 48.4024 263.628 48.4024V59.3746ZM261.016 59.3871V106H271.988V59.3871H261.016ZM266.502 111.486H280.248V100.514H266.502V111.486ZM285.734 106V69.5094H274.762V106H285.734ZM285.734 69.5094C285.734 66.0196 286.88 63.5509 288.475 61.9651C290.074 60.3746 292.551 59.2496 295.994 59.2496V48.2774C290.064 48.2774 284.669 50.2766 280.738 54.1847C276.803 58.0975 274.762 63.5017 274.762 69.5094H285.734ZM295.994 59.2496C299.413 59.2496 301.623 60.3532 303.005 61.8271C304.428 63.345 305.504 65.8296 305.504 69.5094H316.476C316.476 63.6918 314.741 58.3034 311.009 54.3227C307.236 50.298 301.948 48.2774 295.994 48.2774V59.2496ZM305.504 69.5094V93.5032H316.476V69.5094H305.504ZM305.504 93.5032C305.504 98.6314 306.824 103.595 310.159 107.338C313.582 111.179 318.458 112.986 323.987 112.986V102.013C320.893 102.013 319.271 101.071 318.351 100.038C317.343 98.9073 316.476 96.8728 316.476 93.5032H305.504ZM323.987 112.986C328.373 112.986 332.18 111.889 335.049 109.839L328.671 100.911C328.041 101.361 326.599 102.013 323.987 102.013V112.986ZM336.623 108.097L337.123 107.222L327.596 101.778L327.097 102.653L336.623 108.097ZM337.722 103.341L335.722 94.0933L324.998 96.4121L326.998 105.66L337.722 103.341ZM369.46 112.986C392.182 112.986 409.063 96.7082 409.063 74.7581H398.09C398.09 90.2981 386.479 102.013 369.46 102.013V112.986ZM409.063 74.7581C409.063 52.9464 392.196 36.5305 369.46 36.5305V47.5027C386.464 47.5027 398.09 59.3294 398.09 74.7581H409.063ZM369.46 36.5305C346.698 36.5305 329.983 52.9728 329.983 74.7581H340.955C340.955 59.303 352.483 47.5027 369.46 47.5027V36.5305ZM329.983 74.7581C329.983 96.5433 346.698 112.986 369.46 112.986V102.013C352.483 102.013 340.955 90.2131 340.955 74.7581H329.983ZM369.46 90.1415C360.963 90.1415 354.827 83.9494 354.827 74.7581H343.855C343.855 89.5605 354.464 101.114 369.46 101.114V90.1415ZM354.827 74.7581C354.827 65.5668 360.963 59.3746 369.46 59.3746V48.4024C354.464 48.4024 343.855 59.9556 343.855 74.7581H354.827ZM369.46 59.3746C378.061 59.3746 384.094 65.5435 384.094 74.7581H395.066C395.066 59.9788 384.604 48.4024 369.46 48.4024V59.3746ZM384.094 74.7581C384.094 83.9726 378.061 90.1415 369.46 90.1415V101.114C384.604 101.114 395.066 89.5373 395.066 74.7581H384.094ZM501.577 36.8929L505.518 33.0757L503.901 31.4068H501.577V36.8929ZM500.578 36.8929V31.4068H498.908L497.521 32.3371L500.578 36.8929ZM490.705 43.5162L487.649 38.9604L485.219 40.5904V43.5162H490.705ZM490.705 44.5159H485.219V46.606L486.61 48.1662L490.705 44.5159ZM499.328 72.7586L493.845 72.5817L493.844 72.5947L493.844 72.6076L499.328 72.7586ZM469.086 43.5162H474.572V38.0301H469.086V43.5162ZM456.089 43.5162V38.0301H450.603V43.5162H456.089ZM407.102 44.141L403.913 39.6768L402.935 40.3755L402.339 41.4192L407.102 44.141ZM406.602 45.0158L401.839 42.2939L400.795 44.1198L401.24 46.1752L406.602 45.0158ZM408.602 54.2634L403.239 55.4228L403.838 58.1905L406.44 59.3059L408.602 54.2634ZM409.476 54.6383L407.315 59.6808L410.231 60.9303L412.768 59.0272L409.476 54.6383ZM462.587 98.3769L466.988 95.1002L462.801 89.4787L458.35 94.8926L462.587 98.3769ZM513.199 72.5086L507.717 72.3093L507.716 72.3274L507.716 72.3454L513.199 72.5086ZM501.577 31.4068H500.578V42.379H501.577V31.4068ZM497.521 32.3371L487.649 38.9604L493.762 48.072L503.634 41.4487L497.521 32.3371ZM485.219 43.5162V44.5159H496.191V43.5162H485.219ZM486.61 48.1662C490.604 52.6481 494.184 62.0474 493.845 72.5817L504.811 72.9355C505.221 60.2258 501.053 47.8808 494.801 40.8657L486.61 48.1662ZM493.844 72.6076C493.676 78.724 492.22 83.287 490.154 86.1635C488.228 88.8452 485.666 90.2665 482.207 90.2665V101.239C489.371 101.239 495.181 97.9737 499.066 92.5637C502.812 87.3486 504.605 80.4146 504.812 72.9095L493.844 72.6076ZM482.207 90.2665C479.5 90.2665 477.817 89.423 476.757 88.2545C475.638 87.0209 474.572 84.7132 474.572 80.6315H463.6C463.6 86.5473 465.158 91.8 468.631 95.6277C472.164 99.5204 477.042 101.239 482.207 101.239V90.2665ZM474.572 80.6315V43.5162H463.6V80.6315H474.572ZM469.086 38.0301H456.089V49.0023H469.086V38.0301ZM450.603 43.5162V80.6315H461.575V43.5162H450.603ZM450.603 80.6315C450.603 84.0198 449.582 86.3596 448.22 87.8062C446.896 89.2128 444.794 90.2665 441.593 90.2665V101.239C447.389 101.239 452.535 99.2307 456.21 95.3261C459.847 91.4616 461.575 86.2409 461.575 80.6315H450.603ZM441.593 90.2665C438.579 90.2665 436.769 89.3551 435.667 88.1659C434.515 86.9222 433.458 84.636 433.458 80.6315H422.485C422.485 86.4995 424.052 91.7738 427.618 95.6225C431.234 99.5258 436.234 101.239 441.593 101.239V90.2665ZM433.458 80.6315V55.638H422.485V80.6315H433.458ZM433.458 55.638C433.458 50.4249 432.093 45.4926 428.658 41.8372C425.172 38.127 420.307 36.5305 414.975 36.5305V47.5027C418.14 47.5027 419.774 48.4055 420.662 49.3504C421.601 50.3501 422.485 52.2284 422.485 55.638H433.458ZM414.975 36.5305C410.437 36.5305 406.764 37.6404 403.913 39.6768L410.291 48.6053C410.939 48.1424 412.264 47.5027 414.975 47.5027V36.5305ZM402.339 41.4192L401.839 42.2939L411.365 47.7377L411.865 46.8629L402.339 41.4192ZM401.24 46.1752L403.239 55.4228L413.964 53.104L411.964 43.8564L401.24 46.1752ZM406.44 59.3059L407.315 59.6808L411.637 49.5958L410.763 49.2209L406.44 59.3059ZM412.768 59.0272C412.854 58.9624 412.739 59.0616 412.497 59.1653C412.217 59.2849 411.86 59.3746 411.476 59.3746V48.4024C408.854 48.4024 407.058 49.5944 406.185 50.2494L412.768 59.0272ZM411.476 59.3746C411.142 59.3746 410.492 59.2823 409.814 58.8269C409.161 58.3877 408.866 57.8694 408.771 57.6611C408.691 57.4874 408.734 57.5024 408.784 57.8605C408.831 58.1992 408.864 58.6939 408.864 59.3871H419.836C419.836 57.5867 419.707 55.1855 418.742 53.0839C418.209 51.9227 417.337 50.6624 415.933 49.7194C414.506 48.7602 412.935 48.4024 411.476 48.4024V59.3746ZM408.864 59.3871V80.2566H419.836V59.3871H408.864ZM408.864 80.2566C408.864 89.9863 412.076 98.2929 418.07 104.169C424.045 110.027 432.29 112.986 441.468 112.986V102.013C434.65 102.013 429.336 99.8489 425.751 96.3339C422.185 92.8373 419.836 87.5225 419.836 80.2566H408.864ZM441.468 112.986C452.307 112.986 461.053 108.881 466.825 101.861L458.35 94.8926C454.874 99.1202 449.374 102.013 441.468 102.013V112.986ZM458.187 101.654C463.772 109.153 472.543 112.986 482.707 112.986V102.013C475.376 102.013 470.15 99.3475 466.988 95.1002L458.187 101.654ZM482.707 112.986C493.405 112.986 502.426 108.852 508.773 101.447C515.032 94.1455 518.343 84.087 518.683 72.6718L507.716 72.3454C507.431 81.9248 504.681 89.3617 500.442 94.3067C496.292 99.1484 490.38 102.013 482.707 102.013V112.986ZM518.682 72.708C519.219 57.9243 514.585 42.4352 505.518 33.0757L497.637 40.7101C504.066 47.3465 508.179 59.6002 507.717 72.3093L518.682 72.708ZM536.582 49.8895H531.096V62.4703L540.315 53.9097L536.582 49.8895ZM515.712 22.0218L512.524 17.5576L511.545 18.2563L510.949 19.2999L515.712 22.0218ZM515.212 22.8966L510.449 20.1747L509.406 22.0006L509.85 24.056L515.212 22.8966ZM517.212 32.1442L511.85 33.3036L512.448 36.0712L515.051 37.1867L517.212 32.1442ZM518.087 32.5191L515.926 37.5616L519.34 39.0247L521.966 36.3983L518.087 32.5191ZM522.96 106H517.474V111.486H522.96V106ZM535.207 106V111.486H540.693V106H535.207ZM535.207 98.3769L539.131 94.5425L529.721 84.914V98.3769H535.207ZM557.077 36.5305C547.425 36.5305 539.098 40.0662 532.849 45.8694L540.315 53.9097C544.563 49.9654 550.232 47.5027 557.077 47.5027V36.5305ZM542.068 49.8895V33.5188H531.096V49.8895H542.068ZM542.068 33.5188C542.068 28.3057 540.703 23.3733 537.268 19.7179C533.782 16.0078 528.917 14.4113 523.585 14.4113V25.3835C526.751 25.3835 528.384 26.2863 529.272 27.2312C530.211 28.2308 531.096 30.1092 531.096 33.5188H542.068ZM523.585 14.4113C519.199 14.4113 515.393 15.5083 512.524 17.5576L518.901 26.486C519.531 26.036 520.973 25.3835 523.585 25.3835V14.4113ZM510.949 19.2999L510.449 20.1747L519.976 25.6184L520.476 24.7437L510.949 19.2999ZM509.85 24.056L511.85 33.3036L522.574 30.9848L520.575 21.7372L509.85 24.056ZM515.051 37.1867L515.926 37.5616L520.248 27.4766L519.373 27.1017L515.051 37.1867ZM521.966 36.3983C521.694 36.6702 521.304 36.9426 520.836 37.1125C520.419 37.2641 520.155 37.2554 520.211 37.2554V26.2832C518.122 26.2832 515.969 26.8783 514.207 28.6398L521.966 36.3983ZM520.211 37.2554C519.879 37.2554 519.186 37.1631 518.463 36.6619C517.767 36.1794 517.472 35.6132 517.383 35.4043C517.309 35.2323 517.354 35.2578 517.401 35.6482C517.446 36.0163 517.474 36.5386 517.474 37.2678H528.447C528.447 35.5583 528.361 33.1777 527.476 31.1022C526.981 29.9404 526.138 28.6322 524.716 27.6459C523.267 26.641 521.668 26.2832 520.211 26.2832V37.2554ZM517.474 37.2678V106H528.447V37.2678H517.474ZM522.96 111.486H535.207V100.514H522.96V111.486ZM540.693 106V98.3769H529.721V106H540.693ZM531.284 102.211C537.627 108.703 546.515 112.986 557.077 112.986V102.013C549.642 102.013 543.534 99.0484 539.131 94.5425L531.284 102.211ZM557.077 112.986C579.268 112.986 594.304 95.7335 594.304 74.7581H583.332C583.332 90.2731 572.625 102.013 557.077 102.013V112.986ZM594.304 74.7581C594.304 53.7826 579.268 36.5305 557.077 36.5305V47.5027C572.625 47.5027 583.332 59.243 583.332 74.7581H594.304ZM555.327 90.1415C551.035 90.1415 547.563 88.7432 545.184 86.396C542.835 84.0779 541.068 80.3552 541.068 74.7581H530.096C530.096 82.7823 532.703 89.4945 537.477 94.2057C542.222 98.888 548.622 101.114 555.327 101.114V90.1415ZM541.068 74.7581C541.068 69.1609 542.835 65.4382 545.184 63.1201C547.563 60.7729 551.035 59.3746 555.327 59.3746V48.4024C548.622 48.4024 542.222 50.6281 537.477 55.3104C532.703 60.0217 530.096 66.7338 530.096 74.7581H541.068ZM555.327 59.3746C563.622 59.3746 569.336 65.713 569.336 74.7581H580.308C580.308 60.8091 570.776 48.4024 555.327 48.4024V59.3746ZM569.336 74.7581C569.336 83.8808 563.539 90.1415 555.327 90.1415V101.114C570.609 101.114 580.308 88.8792 580.308 74.7581H569.336ZM665.159 95.2527L670.521 94.0933L669.922 91.3256L667.32 90.2102L665.159 95.2527ZM664.284 94.8778L666.445 89.8353L663.031 88.3722L660.405 90.9985L664.284 94.8778ZM659.41 43.5162H664.896V38.0301H659.41V43.5162ZM647.413 43.5162V38.0301H641.927V43.5162H647.413ZM647.413 51.0142L643.579 54.9378L652.899 64.0465V51.0142H647.413ZM647.538 98.3769L652.874 97.101L650.593 87.5634L643.659 94.4976L647.538 98.3769ZM666.658 105.375L669.625 109.99L670.755 109.263L671.422 108.097L666.658 105.375ZM667.158 104.5L671.921 107.222L672.965 105.396L672.52 103.341L667.158 104.5ZM667.32 90.2102L666.445 89.8353L662.123 99.9203L662.998 100.295L667.32 90.2102ZM660.405 90.9985C660.61 90.7933 660.89 90.5662 661.254 90.3932C661.635 90.2114 662.001 90.1415 662.284 90.1415V101.114C665.248 101.114 667.192 99.7283 668.163 98.7571L660.405 90.9985ZM662.284 90.1415C662.647 90.1415 663.287 90.2398 663.949 90.6735C664.587 91.0926 664.887 91.5896 664.99 91.8031C665.077 91.984 665.036 91.9795 664.984 91.6384C664.935 91.3146 664.896 90.8255 664.896 90.129H653.924C653.924 92.0612 654.096 94.4775 655.111 96.5779C655.667 97.7286 656.553 98.9442 657.93 99.8475C659.329 100.765 660.859 101.114 662.284 101.114V90.1415ZM664.896 90.129V43.5162H653.924V90.129H664.896ZM659.41 38.0301H647.413V49.0023H659.41V38.0301ZM641.927 43.5162V51.0142H652.899V43.5162H641.927ZM651.248 47.0907C644.816 40.8049 635.973 36.5305 625.294 36.5305V47.5027C632.86 47.5027 639.014 50.4764 643.579 54.9378L651.248 47.0907ZM625.294 36.5305C603.588 36.5305 588.441 53.6734 588.441 74.7581H599.413C599.413 59.1023 610.26 47.5027 625.294 47.5027V36.5305ZM588.441 74.7581C588.441 95.7037 603.575 112.986 625.294 112.986V102.013C610.273 102.013 599.413 90.3029 599.413 74.7581H588.441ZM625.294 112.986C635.955 112.986 644.951 108.723 651.418 102.256L643.659 94.4976C639.129 99.0279 632.878 102.013 625.294 102.013V112.986ZM642.203 99.6528C643.126 103.515 645.074 106.944 648.158 109.391C651.247 111.842 655.067 112.986 659.16 112.986V102.013C657.13 102.013 655.827 101.47 654.979 100.797C654.126 100.12 653.325 98.9874 652.874 97.101L642.203 99.6528ZM659.16 112.986C663.438 112.986 667.08 111.626 669.625 109.99L663.692 100.76C662.737 101.374 661.13 102.013 659.16 102.013V112.986ZM671.422 108.097L671.921 107.222L662.395 101.778L661.895 102.653L671.422 108.097ZM672.52 103.341L670.521 94.0933L659.796 96.4121L661.796 105.66L672.52 103.341ZM627.418 90.1415C619.059 90.1415 613.285 83.8561 613.285 74.7581H602.312C602.312 88.9039 612.034 101.114 627.418 101.114V90.1415ZM613.285 74.7581C613.285 65.7626 618.954 59.3746 627.543 59.3746V48.4024C611.889 48.4024 602.312 60.7595 602.312 74.7581H613.285ZM627.543 59.3746C631.653 59.3746 635.068 60.7677 637.442 63.1414C639.791 65.4906 641.552 69.2344 641.552 74.7581H652.524C652.524 66.7853 649.912 60.0943 645.2 55.3828C640.513 50.6958 634.181 48.4024 627.543 48.4024V59.3746ZM641.552 74.7581C641.552 80.2073 639.798 83.9557 637.426 86.3279C635.031 88.7229 631.582 90.1415 627.418 90.1415V101.114C634.127 101.114 640.488 98.7833 645.185 94.0864C649.904 89.3668 652.524 82.6803 652.524 74.7581H641.552ZM667.352 22.3967L664.164 17.9325L663.186 18.6312L662.589 19.6748L667.352 22.3967ZM666.853 23.2715L662.089 20.5496L661.046 22.3754L661.49 24.4309L666.853 23.2715ZM668.852 32.5191L663.49 33.6785L664.088 36.4462L666.691 37.5616L668.852 32.5191ZM669.727 32.894L667.566 37.9365L670.481 39.1859L673.018 37.2829L669.727 32.894ZM695.47 105.375L698.659 109.839L699.637 109.141L700.233 108.097L695.47 105.375ZM695.97 104.5L700.733 107.222L701.777 105.396L701.332 103.341L695.97 104.5ZM693.97 95.2527L699.333 94.0933L698.734 91.3256L696.132 90.2102L693.97 95.2527ZM693.096 94.8778L695.257 89.8353L692.341 88.5859L689.804 90.4889L693.096 94.8778ZM675.225 14.7862C670.839 14.7862 667.033 15.8832 664.164 17.9325L670.541 26.8609C671.171 26.4109 672.613 25.7584 675.225 25.7584V14.7862ZM662.589 19.6748L662.089 20.5496L671.616 25.9934L672.116 25.1186L662.589 19.6748ZM661.49 24.4309L663.49 33.6785L674.214 31.3597L672.215 22.1121L661.49 24.4309ZM666.691 37.5616L667.566 37.9365L671.888 27.8514L671.013 27.4765L666.691 37.5616ZM673.018 37.2829C673.105 37.2181 672.989 37.3173 672.747 37.421C672.468 37.5406 672.11 37.6303 671.726 37.6303V26.6581C669.104 26.6581 667.308 27.8501 666.435 28.5051L673.018 37.2829ZM671.726 37.6303C671.483 37.6303 670.848 37.5662 670.15 37.1043C669.459 36.6474 669.144 36.0898 669.037 35.8486C668.951 35.655 668.994 35.6586 669.041 36.0387C669.086 36.3969 669.114 36.9119 669.114 37.6427H680.087C680.087 35.9465 680.006 33.5209 679.07 31.4077C678.542 30.2136 677.656 28.9141 676.204 27.9533C674.744 26.9877 673.156 26.6581 671.726 26.6581V37.6303ZM669.114 37.6427V93.1283H680.087V37.6427H669.114ZM669.114 93.1283C669.114 98.3351 670.473 103.362 673.801 107.162C677.222 111.068 682.12 112.986 687.722 112.986V102.013C684.702 102.013 683.039 101.056 682.055 99.933C680.978 98.7027 680.087 96.5442 680.087 93.1283H669.114ZM687.722 112.986C692.01 112.986 695.808 111.876 698.659 109.839L692.281 100.911C691.633 101.374 690.183 102.013 687.722 102.013V112.986ZM700.233 108.097L700.733 107.222L691.207 101.778L690.707 102.653L700.233 108.097ZM701.332 103.341L699.333 94.0933L688.608 96.4121L690.608 105.66L701.332 103.341ZM696.132 90.2102L695.257 89.8353L690.935 99.9203L691.809 100.295L696.132 90.2102ZM689.804 90.4889C689.718 90.5537 689.833 90.4545 690.075 90.3508C690.355 90.2312 690.712 90.1415 691.096 90.1415V101.114C693.718 101.114 695.514 99.9217 696.387 99.2667L689.804 90.4889ZM691.096 90.1415C691.43 90.1415 692.08 90.2338 692.758 90.6892C693.411 91.1284 693.706 91.6467 693.802 91.855C693.881 92.0287 693.838 92.0137 693.789 91.6557C693.741 91.3169 693.708 90.8223 693.708 90.129H682.736C682.736 91.9294 682.865 94.3306 683.83 96.4323C684.363 97.5934 685.235 98.8537 686.639 99.7967C688.066 100.756 689.637 101.114 691.096 101.114V90.1415ZM693.708 90.129V33.8937H682.736V90.129H693.708ZM693.708 33.8937C693.708 28.6806 692.343 23.7482 688.908 20.0928C685.422 16.3827 680.558 14.7862 675.225 14.7862V25.7584C678.391 25.7584 680.024 26.6612 680.912 27.6061C681.851 28.6057 682.736 30.4841 682.736 33.8937H693.708ZM696.432 22.3967L693.243 17.9325L692.265 18.6312L691.669 19.6748L696.432 22.3967ZM695.932 23.2715L691.169 20.5496L690.125 22.3754L690.57 24.4309L695.932 23.2715ZM697.931 32.5191L692.569 33.6785L693.168 36.4462L695.77 37.5616L697.931 32.5191ZM698.806 32.894L696.645 37.9365L699.56 39.1859L702.098 37.2829L698.806 32.894ZM724.549 105.375L727.738 109.839L728.716 109.141L729.313 108.097L724.549 105.375ZM725.049 104.5L729.813 107.222L730.856 105.396L730.411 103.341L725.049 104.5ZM723.05 95.2527L728.412 94.0933L727.814 91.3256L725.211 90.2102L723.05 95.2527ZM722.175 94.8778L724.336 89.8353L721.421 88.5859L718.883 90.4889L722.175 94.8778ZM704.305 14.7862C699.919 14.7862 696.112 15.8832 693.243 17.9325L699.621 26.8609C700.251 26.4109 701.693 25.7584 704.305 25.7584V14.7862ZM691.669 19.6748L691.169 20.5496L700.695 25.9934L701.195 25.1186L691.669 19.6748ZM690.57 24.4309L692.569 33.6785L703.294 31.3597L701.294 22.1121L690.57 24.4309ZM695.77 37.5616L696.645 37.9365L700.967 27.8514L700.092 27.4765L695.77 37.5616ZM702.098 37.2829C702.184 37.2181 702.068 37.3173 701.826 37.421C701.547 37.5406 701.189 37.6303 700.806 37.6303V26.6581C698.183 26.6581 696.388 27.8501 695.515 28.5051L702.098 37.2829ZM700.806 37.6303C700.563 37.6303 699.928 37.5662 699.23 37.1043C698.539 36.6474 698.223 36.0898 698.117 35.8486C698.031 35.655 698.073 35.6586 698.121 36.0387C698.165 36.3969 698.194 36.9119 698.194 37.6427H709.166C709.166 35.9465 709.085 33.5209 708.15 31.4077C707.621 30.2136 706.736 28.9141 705.283 27.9533C703.824 26.9877 702.236 26.6581 700.806 26.6581V37.6303ZM698.194 37.6427V93.1283H709.166V37.6427H698.194ZM698.194 93.1283C698.194 98.3351 699.552 103.362 702.88 107.162C706.301 111.068 711.199 112.986 716.801 112.986V102.013C713.781 102.013 712.118 101.056 711.134 99.933C710.057 98.7027 709.166 96.5442 709.166 93.1283H698.194ZM716.801 112.986C721.089 112.986 724.887 111.876 727.738 109.839L721.361 100.911C720.713 101.374 719.262 102.013 716.801 102.013V112.986ZM729.313 108.097L729.813 107.222L720.286 101.778L719.786 102.653L729.313 108.097ZM730.411 103.341L728.412 94.0933L717.688 96.4121L719.687 105.66L730.411 103.341ZM725.211 90.2102L724.336 89.8353L720.014 99.9203L720.889 100.295L725.211 90.2102ZM718.883 90.4889C718.797 90.5537 718.913 90.4545 719.155 90.3508C719.434 90.2312 719.792 90.1415 720.176 90.1415V101.114C722.798 101.114 724.593 99.9217 725.467 99.2667L718.883 90.4889ZM720.176 90.1415C720.51 90.1415 721.159 90.2338 721.837 90.6892C722.491 91.1284 722.785 91.6467 722.881 91.855C722.961 92.0287 722.918 92.0137 722.868 91.6557C722.821 91.3169 722.787 90.8223 722.787 90.129H711.815C711.815 91.9294 711.944 94.3306 712.909 96.4323C713.442 97.5934 714.315 98.8537 715.718 99.7967C717.146 100.756 718.717 101.114 720.176 101.114V90.1415ZM722.787 90.129V33.8937H711.815V90.129H722.787ZM722.787 33.8937C722.787 28.6806 721.422 23.7482 717.988 20.0928C714.502 16.3827 709.637 14.7862 704.305 14.7862V25.7584C707.47 25.7584 709.104 26.6612 709.992 27.6061C710.931 28.6057 711.815 30.4841 711.815 33.8937H722.787Z" fill="url(#paint0_linear_1_16)" fill-opacity="0.5"/>
<g opacity="0.1">
<path fill-rule="evenodd" clip-rule="evenodd" d="M53.079 9.62114C67.206 10.3311 78.1437 20.4532 88.2339 30.3659C98.452 40.4044 109.218 51.2169 109.98 65.5208C110.771 80.3881 103.149 94.5538 92.1869 104.629C81.6571 114.306 67.375 117.415 53.079 117.817C38.2563 118.235 21.9172 117.647 11.7033 106.897C1.63011 96.2948 2.93459 80.1378 3.39 65.5208C3.82544 51.5449 4.91399 37.0961 14.2036 26.6454C23.974 15.6538 38.3913 8.88297 53.079 9.62114Z" fill="white"/>
<path fill-rule="evenodd" clip-rule="evenodd" d="M53.079 9.62114C67.206 10.3311 78.1437 20.4532 88.2339 30.3659C98.452 40.4044 109.218 51.2169 109.98 65.5208C110.771 80.3881 103.149 94.5538 92.1869 104.629C81.6571 114.306 67.375 117.415 53.079 117.817C38.2563 118.235 21.9172 117.647 11.7033 106.897C1.63011 96.2948 2.93459 80.1378 3.39 65.5208C3.82544 51.5449 4.91399 37.0961 14.2036 26.6454C23.974 15.6538 38.3913 8.88297 53.079 9.62114Z" fill="white" stroke="url(#paint1_linear_1_16)" stroke-width="6.08108"/>
</g>
<path d="M194.923 93.2532V92.1285L201.921 84.1306H203.046C208.419 90.6289 216.292 95.5026 225.79 95.5026C235.162 95.5026 241.286 90.7539 241.286 84.2556C241.286 75.8828 231.288 73.3834 220.041 69.0096C210.294 65.3855 198.172 60.1369 198.172 46.1405C198.172 32.1442 210.294 23.2715 226.165 23.2715C238.037 23.2715 247.659 28.1452 253.533 35.6433V36.768L246.409 44.266H245.285C241.036 39.2673 234.663 34.8935 226.29 34.8935C218.417 34.8935 212.418 38.8924 212.418 45.1408C212.418 51.5141 218.917 54.3884 226.54 57.2626C239.536 62.2613 255.532 67.26 255.532 84.0056C255.532 98.8768 242.91 107.5 226.29 107.5C213.043 107.5 201.796 102.001 194.923 93.2532ZM330.36 95.2527L329.485 94.8778C328.986 95.2527 328.361 95.6276 327.486 95.6276C325.237 95.6276 324.612 93.5032 324.612 90.129V68.3847C324.612 52.7638 314.489 42.0166 298.619 42.0166C290.246 42.0166 283.123 45.0158 278.249 49.8895C276.624 44.8908 272.5 42.0166 266.877 42.0166C263.628 42.0166 261.003 42.8914 259.254 44.141L258.754 45.0158L260.753 54.2634L261.628 54.6383C262.128 54.2634 262.753 53.8885 263.628 53.8885C266.002 53.8885 266.502 56.0129 266.502 59.3871V106H280.248V69.5094C280.248 60.0119 286.622 53.7635 295.994 53.7635C305.367 53.7635 310.99 60.0119 310.99 69.5094V93.5032C310.99 102.001 315.364 107.5 323.987 107.5C327.486 107.5 330.11 106.625 331.86 105.375L332.36 104.5L330.36 95.2527ZM369.46 107.5C389.33 107.5 403.576 93.5032 403.576 74.7581C403.576 56.1379 389.33 42.0166 369.46 42.0166C349.591 42.0166 335.469 56.1379 335.469 74.7581C335.469 93.3782 349.591 107.5 369.46 107.5ZM369.46 95.6276C357.713 95.6276 349.341 86.7549 349.341 74.7581C349.341 62.7612 357.713 53.8885 369.46 53.8885C381.332 53.8885 389.58 62.7612 389.58 74.7581C389.58 86.7549 381.332 95.6276 369.46 95.6276ZM501.577 36.8929H500.578L490.705 43.5162V44.5159C495.829 50.2644 499.703 61.1366 499.328 72.7586C498.953 86.38 492.83 95.7526 482.207 95.7526C474.334 95.7526 469.086 90.6289 469.086 80.6315V43.5162H456.089V80.6315C456.089 89.6292 450.591 95.7526 441.593 95.7526C433.22 95.7526 427.972 90.5039 427.972 80.6315V55.638C427.972 47.0153 423.473 42.0166 414.975 42.0166C411.351 42.0166 408.851 42.8914 407.102 44.141L406.602 45.0158L408.602 54.2634L409.476 54.6383C409.976 54.2634 410.601 53.8885 411.476 53.8885C413.725 53.8885 414.35 56.0129 414.35 59.3871V80.2566C414.35 97.2522 425.472 107.5 441.468 107.5C450.841 107.5 457.964 104 462.587 98.3769C466.961 104.25 473.96 107.5 482.707 107.5C501.077 107.5 512.574 93.5032 513.199 72.5086C513.699 58.7622 509.325 44.8908 501.577 36.8929ZM557.077 42.0166C548.829 42.0166 541.83 45.0158 536.582 49.8895V33.5188C536.582 24.8961 532.083 19.8974 523.585 19.8974C520.086 19.8974 517.462 20.7721 515.712 22.0218L515.212 22.8966L517.212 32.1442L518.087 32.5191C518.587 32.0192 519.211 31.7693 520.211 31.7693C522.461 31.7693 522.96 33.8937 522.96 37.2678V106H535.207V98.3769C540.581 103.875 548.079 107.5 557.077 107.5C575.947 107.5 588.818 93.0033 588.818 74.7581C588.818 56.5128 575.947 42.0166 557.077 42.0166ZM555.327 95.6276C544.33 95.6276 535.582 88.3795 535.582 74.7581C535.582 61.1366 544.33 53.8885 555.327 53.8885C567.199 53.8885 574.822 63.2611 574.822 74.7581C574.822 86.38 567.074 95.6276 555.327 95.6276ZM665.159 95.2527L664.284 94.8778C664.034 95.1277 663.409 95.6276 662.284 95.6276C660.16 95.6276 659.41 93.6281 659.41 90.129V43.5162H647.413V51.0142C641.915 45.6406 634.417 42.0166 625.294 42.0166C606.924 42.0166 593.927 56.3878 593.927 74.7581C593.927 93.0033 606.924 107.5 625.294 107.5C634.417 107.5 642.04 103.875 647.538 98.3769C648.913 104.125 653.037 107.5 659.16 107.5C662.284 107.5 664.909 106.5 666.658 105.375L667.158 104.5L665.159 95.2527ZM627.419 95.6276C615.547 95.6276 607.799 86.38 607.799 74.7581C607.799 63.2611 615.422 53.8885 627.543 53.8885C638.291 53.8885 647.038 61.2616 647.038 74.7581C647.038 88.1296 638.291 95.6276 627.419 95.6276ZM675.225 20.2723C671.726 20.2723 669.102 21.147 667.352 22.3967L666.853 23.2715L668.852 32.5191L669.727 32.894C670.227 32.5191 670.852 32.1442 671.726 32.1442C674.101 32.1442 674.601 34.2686 674.601 37.6427V93.1283C674.601 101.751 679.099 107.5 687.722 107.5C691.096 107.5 693.721 106.625 695.47 105.375L695.97 104.5L693.97 95.2527L693.096 94.8778C692.596 95.2527 691.971 95.6276 691.096 95.6276C688.847 95.6276 688.222 93.5032 688.222 90.129V33.8937C688.222 25.271 683.723 20.2723 675.225 20.2723ZM704.305 20.2723C700.806 20.2723 698.181 21.147 696.432 22.3967L695.932 23.2715L697.931 32.5191L698.806 32.894C699.306 32.5191 699.931 32.1442 700.806 32.1442C703.18 32.1442 703.68 34.2686 703.68 37.6427V93.1283C703.68 101.751 708.179 107.5 716.801 107.5C720.176 107.5 722.8 106.625 724.549 105.375L725.049 104.5L723.05 95.2527L722.175 94.8778C721.675 95.2527 721.05 95.6276 720.176 95.6276C717.926 95.6276 717.301 93.5032 717.301 90.129V33.8937C717.301 25.271 712.803 20.2723 704.305 20.2723Z" fill="white"/>
<g opacity="0.2">
<path fill-rule="evenodd" clip-rule="evenodd" d="M65.4644 9.62114C79.5913 10.3311 90.529 20.4532 100.619 30.3659C110.837 40.4044 121.604 51.2169 122.365 65.5208C123.156 80.3881 115.534 94.5538 104.572 104.629C94.0425 114.306 79.7604 117.415 65.4644 117.817C50.6417 118.235 34.3026 117.647 24.0886 106.897C14.0155 96.2948 15.32 80.1378 15.7754 65.5208C16.2108 51.5449 17.2994 37.0961 26.589 26.6454C36.3593 15.6538 50.7767 8.88297 65.4644 9.62114Z" fill="white"/>
<path fill-rule="evenodd" clip-rule="evenodd" d="M65.4644 9.62114C79.5913 10.3311 90.529 20.4532 100.619 30.3659C110.837 40.4044 121.604 51.2169 122.365 65.5208C123.156 80.3881 115.534 94.5538 104.572 104.629C94.0425 114.306 79.7604 117.415 65.4644 117.817C50.6417 118.235 34.3026 117.647 24.0886 106.897C14.0155 96.2948 15.32 80.1378 15.7754 65.5208C16.2108 51.5449 17.2994 37.0961 26.589 26.6454C36.3593 15.6538 50.7767 8.88297 65.4644 9.62114Z" fill="white" stroke="url(#paint2_linear_1_16)" stroke-width="6.08108"/>
</g>
<g opacity="0.5">
<path fill-rule="evenodd" clip-rule="evenodd" d="M82.2216 9.62114C96.3485 10.3311 107.286 20.4532 117.376 30.3659C127.595 40.4044 138.361 51.2169 139.122 65.5208C139.914 80.3881 132.291 94.5538 121.329 104.629C110.8 114.306 96.5176 117.415 82.2216 117.817C67.3989 118.235 51.0598 117.647 40.8458 106.897C30.7727 96.2948 32.0772 80.1378 32.5326 65.5208C32.968 51.5449 34.0566 37.0961 43.3462 26.6454C53.1165 15.6538 67.5339 8.88297 82.2216 9.62114Z" fill="white"/>
<path fill-rule="evenodd" clip-rule="evenodd" d="M82.2216 9.62114C96.3485 10.3311 107.286 20.4532 117.376 30.3659C127.595 40.4044 138.361 51.2169 139.122 65.5208C139.914 80.3881 132.291 94.5538 121.329 104.629C110.8 114.306 96.5176 117.415 82.2216 117.817C67.3989 118.235 51.0598 117.647 40.8458 106.897C30.7727 96.2948 32.0772 80.1378 32.5326 65.5208C32.968 51.5449 34.0566 37.0961 43.3462 26.6454C53.1165 15.6538 67.5339 8.88297 82.2216 9.62114Z" fill="white" stroke="url(#paint3_linear_1_16)" stroke-width="6.08108"/>
</g>
<path fill-rule="evenodd" clip-rule="evenodd" d="M98.9783 9.62114C113.105 10.3311 124.043 20.4532 134.133 30.3659C144.351 40.4044 155.117 51.2169 155.879 65.5208C156.67 80.3881 149.048 94.5538 138.086 104.629C127.556 114.306 113.274 117.415 98.9783 117.817C84.1556 118.235 67.8165 117.647 57.6025 106.897C47.5294 96.2948 48.8339 80.1378 49.2893 65.5208C49.7247 51.5449 50.8133 37.0961 60.1029 26.6454C69.8732 15.6538 84.2906 8.88297 98.9783 9.62114Z" fill="white"/>
<path fill-rule="evenodd" clip-rule="evenodd" d="M98.9783 9.62114C113.105 10.3311 124.043 20.4532 134.133 30.3659C144.351 40.4044 155.117 51.2169 155.879 65.5208C156.67 80.3881 149.048 94.5538 138.086 104.629C127.556 114.306 113.274 117.415 98.9783 117.817C84.1556 118.235 67.8165 117.647 57.6025 106.897C47.5294 96.2948 48.8339 80.1378 49.2893 65.5208C49.7247 51.5449 50.8133 37.0961 60.1029 26.6454C69.8732 15.6538 84.2906 8.88297 98.9783 9.62114Z" fill="white" stroke="url(#paint4_linear_1_16)" stroke-width="6.08108"/>
<defs>
<linearGradient id="paint0_linear_1_16" x1="459.924" y1="-9.15527e-05" x2="459.924" y2="117.871" gradientUnits="userSpaceOnUse">
<stop offset="0.354167" stop-color="#E0E0E0"/>
<stop offset="1" stop-color="#E0E0E0" stop-opacity="0"/>
<stop offset="1" stop-color="#3391FF" stop-opacity="0"/>
</linearGradient>
<linearGradient id="paint1_linear_1_16" x1="56.5559" y1="9.56631" x2="56.5559" y2="117.909" gradientUnits="userSpaceOnUse">
<stop offset="0.354167" stop-color="#8AB9F0"/>
<stop offset="1" stop-color="#3E96FD"/>
</linearGradient>
<linearGradient id="paint2_linear_1_16" x1="68.9413" y1="9.56631" x2="68.9413" y2="117.909" gradientUnits="userSpaceOnUse">
<stop offset="0.354167" stop-color="#8AB9F0"/>
<stop offset="1" stop-color="#3E96FD"/>
</linearGradient>
<linearGradient id="paint3_linear_1_16" x1="85.6985" y1="9.56631" x2="85.6985" y2="117.909" gradientUnits="userSpaceOnUse">
<stop offset="0.354167" stop-color="#8AB9F0"/>
<stop offset="1" stop-color="#3E96FD"/>
</linearGradient>
<linearGradient id="paint4_linear_1_16" x1="102.455" y1="9.56631" x2="102.455" y2="117.909" gradientUnits="userSpaceOnUse">
<stop offset="0.354167" stop-color="#8AB9F0"/>
<stop offset="1" stop-color="#3E96FD"/>
</linearGradient>
</defs>
</svg>
