<svg width="253" height="322" viewBox="0 0 253 322" fill="none" xmlns="http://www.w3.org/2000/svg">
<path d="M47.2725 321.079H205.987C236.923 321.079 252.316 305.387 252.316 274.302V138.602C252.316 119.323 250.074 110.955 238.119 98.6993L155.772 14.859C144.414 3.202 134.999 0.661369 118.26 0.661369H47.2725C16.486 0.661369 0.943359 16.5029 0.943359 47.5882V274.302C0.943359 305.537 16.3366 321.079 47.2725 321.079ZM48.3186 297.018C32.9254 297.018 25.0046 288.798 25.0046 273.853V48.0366C25.0046 33.2412 32.9254 24.7226 48.468 24.7226H114.973V111.553C114.973 130.383 124.388 139.649 143.069 139.649H228.255V273.853C228.255 288.798 220.334 297.018 204.792 297.018H48.3186ZM145.759 117.082C139.781 117.082 137.539 114.691 137.539 108.713V29.3555L223.622 117.082H145.759Z" fill="white" fill-opacity="0.85"/>
</svg>
