<svg width="46" height="56" viewBox="0 0 46 56" fill="none" xmlns="http://www.w3.org/2000/svg">
<g filter="url(#filter0_dd_1_47)">
<path d="M9.75632 51.7064H34.2437C39.0167 51.7064 41.3916 49.2854 41.3916 44.4893V23.5528C41.3916 20.5784 41.0457 19.2872 39.2011 17.3964L26.4962 4.461C24.7439 2.66249 23.2913 2.27051 20.7087 2.27051H9.75632C5.0064 2.27051 2.6084 4.71463 2.6084 9.51065V44.4893C2.6084 49.3084 4.98336 51.7064 9.75632 51.7064ZM9.91772 47.9941C7.54277 47.9941 6.32071 46.7259 6.32071 44.4201V9.57983C6.32071 7.29711 7.54277 5.98282 9.94077 5.98282H20.2015V19.3794C20.2015 22.2847 21.6541 23.7143 24.5364 23.7143H37.6793V44.4201C37.6793 46.7259 36.4573 47.9941 34.0593 47.9941H9.91772ZM24.9514 20.2326C24.0291 20.2326 23.6832 19.8636 23.6832 18.9413V6.6976L36.9645 20.2326H24.9514Z" fill="white" fill-opacity="0.85"/>
</g>
<defs>
<filter id="filter0_dd_1_47" x="0.608398" y="0.270508" width="44.7832" height="55.4359" filterUnits="userSpaceOnUse" color-interpolation-filters="sRGB">
<feFlood flood-opacity="0" result="BackgroundImageFix"/>
<feColorMatrix in="SourceAlpha" type="matrix" values="0 0 0 0 0 0 0 0 0 0 0 0 0 0 0 0 0 0 127 0" result="hardAlpha"/>
<feOffset dy="2"/>
<feGaussianBlur stdDeviation="1"/>
<feComposite in2="hardAlpha" operator="out"/>
<feColorMatrix type="matrix" values="0 0 0 0 0 0 0 0 0 0 0 0 0 0 0 0 0 0 0.25 0"/>
<feBlend mode="normal" in2="BackgroundImageFix" result="effect1_dropShadow_1_47"/>
<feColorMatrix in="SourceAlpha" type="matrix" values="0 0 0 0 0 0 0 0 0 0 0 0 0 0 0 0 0 0 127 0" result="hardAlpha"/>
<feOffset dx="2"/>
<feGaussianBlur stdDeviation="1"/>
<feComposite in2="hardAlpha" operator="out"/>
<feColorMatrix type="matrix" values="0 0 0 0 0 0 0 0 0 0 0 0 0 0 0 0 0 0 0.25 0"/>
<feBlend mode="normal" in2="effect1_dropShadow_1_47" result="effect2_dropShadow_1_47"/>
<feBlend mode="normal" in="SourceGraphic" in2="effect2_dropShadow_1_47" result="shape"/>
</filter>
</defs>
</svg>
