<svg width="25" height="25" viewBox="0 0 25 25" fill="none" xmlns="http://www.w3.org/2000/svg">
<g id="Apple Logo">
<path id="path4" d="M21.7806 18.924C21.4327 19.7275 21.021 20.4672 20.544 21.1472C19.8938 22.0743 19.3614 22.716 18.9511 23.0724C18.315 23.6573 17.6336 23.9568 16.9039 23.9739C16.38 23.9739 15.7482 23.8248 15.0128 23.5224C14.275 23.2214 13.5969 23.0724 12.9769 23.0724C12.3267 23.0724 11.6293 23.2214 10.8834 23.5224C10.1364 23.8248 9.53456 23.9824 9.07444 23.998C8.37466 24.0278 7.67716 23.7198 6.98093 23.0724C6.53656 22.6848 5.98075 22.0204 5.3149 21.0791C4.60051 20.0739 4.01317 18.9084 3.55304 17.5795C3.06026 16.1442 2.81323 14.7543 2.81323 13.4087C2.81323 11.8673 3.1463 10.5379 3.81342 9.42385C4.33772 8.52901 5.03522 7.82313 5.9082 7.30494C6.78118 6.78674 7.72443 6.52268 8.74024 6.50578C9.29605 6.50578 10.0249 6.67771 10.9307 7.0156C11.8339 7.35463 12.4139 7.52656 12.6681 7.52656C12.8582 7.52656 13.5025 7.32552 14.5947 6.92474C15.6275 6.55306 16.4992 6.39916 17.2133 6.45979C19.1484 6.61595 20.6022 7.37876 21.569 8.75304C19.8384 9.80164 18.9823 11.2703 18.9993 13.1544C19.015 14.622 19.5474 15.8432 20.5937 16.8129C21.0679 17.2629 21.5974 17.6107 22.1866 17.8578C22.0588 18.2283 21.9239 18.5832 21.7806 18.924ZM17.3425 1.46014C17.3425 2.6104 16.9223 3.6844 16.0847 4.67848C15.0738 5.86024 13.8512 6.54312 12.5253 6.43537C12.5084 6.29737 12.4986 6.15213 12.4986 5.99952C12.4986 4.89527 12.9793 3.7135 13.833 2.74725C14.2592 2.25801 14.8013 1.85123 15.4586 1.52672C16.1145 1.20706 16.7349 1.03028 17.3184 1.00001C17.3354 1.15378 17.3425 1.30756 17.3425 1.46012V1.46014Z" fill="white"/>
</g>
</svg>
