<svg width="25" height="23" viewBox="0 0 25 23" fill="none" xmlns="http://www.w3.org/2000/svg">
<g id="person.badge.key.fill 1" clip-path="url(#clip0_36_163)">
<g id="Group">
<path id="Vector" d="M10.4205 11.3763C12.9536 11.3763 15.1333 9.11411 15.1333 6.16861C15.1333 3.25845 12.9418 1.10234 10.4205 1.10234C7.89914 1.10234 5.70766 3.30558 5.70766 6.19218C5.70766 9.11411 7.89914 11.3763 10.4205 11.3763ZM2.51473 22.2865H18.2084C18.067 22.0037 17.9963 21.6973 17.9963 21.3675V16.9256C17.4425 16.4897 17.0067 15.9359 16.7003 15.3115C15.0979 14.2275 12.9654 13.4853 10.4205 13.4853C4.30559 13.4853 0.5 17.6797 0.5 20.7194C0.5 21.6973 1.25405 22.2865 2.51473 22.2865ZM20.9183 8.85492C18.9035 8.85492 17.313 10.4573 17.313 12.4366C17.313 13.9565 18.2202 15.2643 19.5986 15.8063V21.3675C19.5986 21.5088 19.6694 21.6031 19.7636 21.7209L20.7062 22.6752C20.8122 22.7813 20.9772 22.7931 21.1067 22.6752L22.8858 20.8844C23.0155 20.7666 23.0155 20.6134 22.8858 20.4956L21.7784 19.3763L23.3218 17.8799C23.4278 17.7622 23.4161 17.6089 23.2983 17.4676L21.7902 15.9595C23.5221 15.2643 24.5 13.9919 24.5 12.4366C24.5 10.4573 22.8976 8.85492 20.9183 8.85492ZM20.9065 10.5398C21.5074 10.5398 22.0022 11.0464 22.0022 11.6473C22.0022 12.2717 21.5074 12.7665 20.9065 12.7665C20.2938 12.7665 19.7872 12.2717 19.7872 11.6473C19.7872 11.0464 20.2821 10.5398 20.9065 10.5398Z" fill="white" fill-opacity="0.85"/>
</g>
</g>
<defs>
<clipPath id="clip0_36_163">
<rect width="24" height="22.5186" fill="white" transform="translate(0.5 0.240723)"/>
</clipPath>
</defs>
</svg>
